<?xml version="1.0" ?><svg style="enable-background:new 0 0 48 48;" version="1.1" viewBox="0 0 48 48" xml:space="preserve" xmlns="http://www.w3.org/2000/svg" xmlns:xlink="http://www.w3.org/1999/xlink"><style type="text/css">
	.st0{display:none;}
	.st1{fill:none;stroke:#303030;stroke-width:0.7;stroke-linecap:round;stroke-linejoin:round;stroke-miterlimit:10;}
	.st2{fill:#303030;}
</style><g class="st0" id="Padding__x26__Artboard"/><g id="Icons"><g><circle class="st1" cx="24" cy="24" r="15.34377"/><g><path class="st1" d="M22.38552,11.74568c0.53671-0.0959,1.07632-0.15841,1.61329-0.1855"/><path class="st1" d="M15.9629,14.75764c1.44032-1.24238,3.22472-2.1756,5.10362-2.70769"/></g><path class="st1" d="M23.88775,20.85026c-1.32288-3.66498,4.63122-7.14932,7.0845-3.8044c0,0,0.95097-0.03413,2.68647-0.96863    c0,0-0.41385,1.32145-1.74885,2.19597c0,0,1.0146-0.00657,2.2428-0.55392c0,0-0.7743,1.2549-1.9758,2.09595    c0,0-0.0267,1.88235-0.30705,3.05715s-1.21485,4.44555-4.01835,6.74174s-6.2211,2.8035-8.15685,2.67    s-4.31205-0.86775-5.8473-1.8156c0,0,3.51105,0.3738,6.10095-1.7622c0,0-2.6166,0.12015-3.85815-2.89695    c0,0,0.89445,0.1602,1.85565-0.1068c0,0-3.29745-0.60075-3.3375-4.15185c0,0,1.08135,0.534,1.88235,0.4806    c0,0-3.1506-2.403-1.2282-5.51355C15.26243,16.51779,18.41549,20.69714,23.88775,20.85026z"/></g></g></svg>