<?xml version="1.0" ?><svg style="enable-background:new 0 0 48 48;" version="1.1" viewBox="0 0 48 48" xml:space="preserve" xmlns="http://www.w3.org/2000/svg" xmlns:xlink="http://www.w3.org/1999/xlink"><style type="text/css">
	.st0{display:none;}
	.st1{fill:none;stroke:#303030;stroke-width:0.7;stroke-linecap:round;stroke-linejoin:round;stroke-miterlimit:10;}
	.st2{fill:#303030;}
</style><g class="st0" id="Padding__x26__Artboard"/><g id="Icons"><g><path class="st1" d="M21.75324,34.58368h4.05373l0.09561-8.60462h3.34624l0.57364-4.07285l-3.939-0.07648l0.01912-3.19327    c0,0-0.01912-1.31937,1.7018-1.3385c1.72092-0.01912,2.21808,0,2.21808,0l0.09742-3.79927    c-0.55259-0.01277-1.106-0.02819-1.65927-0.04115c-0.56816-0.01331-1.13621-0.03866-1.7043-0.02303    c-0.43821,0.01205-0.88668,0.09666-1.31126,0.20967c-0.6097,0.16228-1.1973,0.42014-1.70286,0.80107    c-0.49142,0.37027-0.88962,0.84987-1.1769,1.39314c-0.33259,0.62894-0.51778,1.32673-0.61189,2.02918    c-0.04265,0.31837-0.06677,0.63911-0.07665,0.96013v3.00203h-3.4992l-0.09561,4.14934l3.55658,0.01912L21.75324,34.58368z"/><circle class="st1" cx="24" cy="24" r="15.34377"/><path class="st1" d="M22.38658,11.68075c0.53679-0.09549,1.07644-0.1576,1.61342-0.18429"/><path class="st1" d="M15.96169,14.68791c1.39468-1.30908,3.18442-2.23438,5.10565-2.70386"/></g></g></svg>