<?xml version="1.0" encoding="utf-8"?>
<!-- Generator: Adobe Illustrator 16.0.0, SVG Export Plug-In . SVG Version: 6.00 Build 0)  -->
<!DOCTYPE svg PUBLIC "-//W3C//DTD SVG 1.1//EN" "http://www.w3.org/Graphics/SVG/1.1/DTD/svg11.dtd">
<svg version="1.1" xmlns="http://www.w3.org/2000/svg" xmlns:xlink="http://www.w3.org/1999/xlink" x="0px" y="0px" width="1000px"
	 height="1000px" viewBox="0 0 1000 1000" enable-background="new 0 0 1000 1000" xml:space="preserve">
<g id="Layer_2" display="none">
	<rect display="inline" fill-rule="evenodd" clip-rule="evenodd" fill="#010000" width="1000" height="1000"/>
</g>
<g id="Layer_1">
	<g>
		<g>
			<path fill-rule="evenodd" clip-rule="evenodd" fill="#FFFFFF" d="M328.125,390.038c0.87,3.101,2.277,4.127,5.526,4.047
				c9.655-0.237,19.326-0.276,28.978,0.013c3.647,0.109,4.824-1.343,5.658-4.555c3.09-11.902,6.449-23.734,9.704-35.594
				c4.04-14.716,8.076-29.433,12.309-44.862c0.458,1.259,0.655,1.704,0.784,2.168c7.246,26.102,14.54,52.192,21.66,78.328
				c0.879,3.226,2.073,4.616,5.683,4.513c9.819-0.281,19.654-0.215,29.478-0.022c2.868,0.056,4.146-0.875,4.847-3.589
				c1.994-7.724,4.064-15.433,6.361-23.071c3.005-9.992,4.99-20.29,8.96-29.992c-0.339-1.717,0.329-3.26,0.775-4.86
				c6.418-23.018,12.742-46.062,19.289-69.042c0.984-3.456,0.747-4.591-3.207-4.465c-8.641,0.274-17.304,0.287-25.943-0.007
				c-3.874-0.131-5.351,0.995-6.118,4.926c-3.084,15.802-6.602,31.52-9.96,47.268c-2.782,13.72-5.563,27.44-8.345,41.16
				c-0.358,0-0.716-0.001-1.074-0.001c-2.783-11.342-5.641-22.667-8.328-34.032c-2.48-10.489-4.78-21.021-7.159-31.533
				c-2.041-8.014-4.15-16.011-6.082-24.051c-0.624-2.596-1.572-3.87-4.611-3.736c-5.631,0.248-11.287-0.054-16.933-0.127
				c-3.661,0.059-7.368,0.505-10.973,0.081c-4.693-0.552-6.232,1.552-7.24,5.77c-6.298,26.343-12.791,52.64-19.361,78.917
				c-0.879,3.518-1.064,7.344-3.445,10.899c-7.474-30.845-14.886-61.185-22.097-91.573c-0.735-3.099-1.974-4.036-5.008-3.975
				c-8.325,0.167-16.656,0.05-24.984,0.06c-6.008,0.007-6.075,0.035-4.479,5.689C304.569,306.538,316.407,348.271,328.125,390.038z"
				/>
			<path fill-rule="evenodd" clip-rule="evenodd" fill="#FFFFFF" d="M488.753,698.554c-0.172-17.731-5.235-33.119-21.841-42.484
				c-9.273-3.844-18.871-5.31-28.801-3.549c-12.358,2.192-21.406,9.424-28.718,19.734c-7.327-12.738-18.174-19.415-32.556-20.32
				c-14.315-0.902-26.486,3.196-35.687,16.455c0-4.847-0.14-8.3,0.045-11.736c0.142-2.647-0.431-3.869-3.478-3.8
				c-8.659,0.195-17.326,0.145-25.987,0.021c-2.554-0.036-3.473,0.705-3.467,3.371c0.074,33.486,0.075,66.973-0.002,100.459
				c-0.006,2.684,0.926,3.383,3.468,3.345c8.495-0.127,16.999-0.232,25.486,0.041c3.525,0.114,4.018-1.255,3.995-4.3
				c-0.125-16.825-0.085-33.652-0.034-50.479c0.009-2.821,0.151-5.673,0.581-8.456c1.705-11.051,9.636-17.254,21.161-16.711
				c11.124,0.523,18.746,7.5,19.034,18.464c0.372,14.146,0.054,28.309,0.034,42.465c0.074,4.996,0.323,9.998,0.155,14.985
				c-0.101,3.011,0.734,4.096,3.896,4.009c7.827-0.213,15.673-0.306,23.492,0.025c4.21,0.179,5.67-0.711,5.584-5.347
				c-0.293-15.824-0.024-31.658,0.03-47.488c-0.028-2.485-0.185-4.977-0.064-7.454c0.708-14.466,12.125-22.577,26.265-18.713
				c0.812,0.135,1.672,0.141,2.429,0.423c7.707,2.875,12.112,9.604,12.185,19.348c0.139,18.318,0.125,36.639,0.002,54.958
				c-0.021,3.146,0.677,4.361,4.085,4.258c8.153-0.246,16.322-0.197,24.478-0.019c3.085,0.067,4.383-0.562,4.353-4.049
				C488.71,736.858,488.938,717.704,488.753,698.554z"/>
			<path fill-rule="evenodd" clip-rule="evenodd" fill="#FFFFFF" d="M497.032,366.202c0.059,7.977,0.248,15.956,0.112,23.93
				c-0.053,3.105,1.021,3.99,4.022,3.926c7.976-0.171,15.969-0.312,23.933,0.043c4.351,0.194,5.144-1.409,5.104-5.38
				c-0.169-16.954-0.002-33.91,0.042-50.865c-0.162-15.549,7.494-24.178,21.088-23.721c0.804,0.027,1.596,0.369,2.395,0.564
				c8.82,0.74,14.006,5.037,16.535,13.407c0.939,3.111,0.864,6.249,0.872,9.392c0.042,17.141,0.169,34.284-0.082,51.421
				c-0.062,4.285,1.286,5.328,5.346,5.171c7.976-0.307,15.975-0.193,23.96-0.037c2.825,0.055,3.706-0.859,3.689-3.688
				c-0.125-20.302,0.193-40.61-0.217-60.904c-0.359-17.847-7.25-32.255-24.014-40.609c-2.404-0.66-4.771-1.529-7.217-1.948
				c-16.078-2.756-30.568-0.622-41.002,13.655c-0.225,0.308-0.754,0.394-1.453,0.735c0-15.292-0.084-30.249,0.068-45.203
				c0.032-3.151-0.662-4.324-4.062-4.214c-7.984,0.26-15.992,0.307-23.973-0.012c-3.964-0.158-4.961,1.031-4.943,4.951
				c0.156,34.471,0.095,68.943,0.078,103.415C497.312,362.221,497.13,364.211,497.032,366.202z"/>
			<path fill-rule="evenodd" clip-rule="evenodd" fill="#FFFFFF" d="M332.464,561.986c7.025-0.039,6.213,0.887,6.28-6.495
				c0.08-8.806,0.149-17.612,0.218-26.419c-0.458-22.064-0.453-44.128,0.004-66.192c-0.511-7.685-0.509-7.685-8.005-8.131
				c-6.819,0.058-13.645,0.324-20.454,0.088c-3.57-0.124-5.23,0.603-4.712,4.546c0.352,2.677,0.067,5.437,0.067,8.896
				c-17.454-20.456-45.023-15.982-58.554-5.979c-27.8,20.554-29.349,67.43-3.157,90.026c16.669,14.382,45.891,15.938,60.306-4.134
				c0.189-0.264,0.544-0.211,1.544-0.381c0,4.889,0,9.539,0,14.19C315,562.002,323.655,562.035,332.464,561.986z M289.118,533.846
				c-15.763,4.922-30.189-7.242-30.131-25.408c0.057-17.772,13.783-29.635,29.402-25.412c10.308,2.787,16.677,11.62,17.376,24.098
				C306.476,519.803,299.807,530.508,289.118,533.846z"/>
			<path fill-rule="evenodd" clip-rule="evenodd" fill="#FFFFFF" d="M660.137,462.498c-11.676-6.962-24.342-9.593-37.816-8.514
				c-13.83,1.106-25.703,6.314-35.013,16.87c-10.489,11.893-12.952,26.076-12.564,41.37c0.782,30.865,25.614,56.222,63.648,50.211
				c13.643-2.156,24.378-9.16,33.375-19.268c1.736-3.93,4.351-7.383,5.89-11.453c1.214-3.209,1.35-4.583-2.856-4.419
				c-6.447,0.251-12.92-0.136-19.382-0.253c-2.322,0.078-4.659,0.353-6.964,0.186c-3.06-0.221-5.194,0.837-7.405,3.046
				c-9.58,9.571-28.249,5.042-32.057-7.587c-0.664-2.207-1.014-3.695,2.298-3.64c12.296,0.21,24.596,0.192,36.894,0.261
				c9.974-0.065,19.95-0.247,29.922-0.129c2.971,0.035,4.203-0.662,4.038-3.819c-0.154-2.967,0.43-5.966,0.376-8.946
				C682.188,488.16,675.18,473.271,660.137,462.498z M644.922,498.777c-5.802-0.253-11.616-0.2-17.426-0.275
				c-5.119,0.09-10.242,0.09-15.355,0.301c-3.771,0.156-3.567-1.734-2.639-4.364c3.957-11.198,17.742-15.986,28.826-9.972
				c4.835,1.917,7.598,5.707,9.323,10.397C648.585,497.402,648.26,498.923,644.922,498.777z"/>
			<path fill-rule="evenodd" clip-rule="evenodd" fill="#FFFFFF" d="M571.588,653.916c-13.926-3.83-27.685-2.588-41.149,2.454
				c-5.54,3.373-11.034,6.778-15.446,11.676c-13.048,14.481-14.946,31.807-12.41,50.03c1.891,13.581,8.652,24.517,19.53,33.046
				c21.188,16.611,66.339,14.901,82.147-19.967c1.667-5.508,1.666-5.503-4.216-5.843c-0.647-0.038-1.289-0.17-1.933-0.258
				c-7.604,1.104-15.248,0.34-22.871,0.415c-3.031,0.029-5.174,0.84-7.409,3.023c-9.511,9.288-27.835,4.782-31.798-7.61
				c-0.777-2.431-1.011-3.895,2.514-3.852c17.455,0.213,34.914,0.195,52.373,0.259c2.994-0.058,5.988-0.159,8.983-0.167
				c8.804-0.022,9.159,0.008,9.542-8.567C610.666,681.121,596.502,660.768,571.588,653.916z M570.08,696.527
				c-10.325,0.078-20.652,0.083-30.976,0.279c-3.226,0.061-3.657-1.228-2.8-3.94c2.34-7.398,9.604-12.652,17.845-12.775
				c9.216-0.447,16.722,3.786,19.862,11.202C576.098,696.217,575.648,696.815,570.08,696.527z"/>
			<path fill-rule="evenodd" clip-rule="evenodd" fill="#FFFFFF" d="M867.618,524.385c-1.818-10.958-8.969-17.168-19.291-20.705
				c-8.212-2.813-16.543-4.946-24.999-6.74c-3.903-0.828-7.841-1.569-11.352-3.627c-2.779-1.629-4.595-3.787-4.173-7.286
				c0.427-3.547,2.848-5.118,5.898-5.954c4.597-1.261,9.239-1.166,13.833,0.061c2.148,0.574,4.667,1.652,4.946,3.772
				c0.776,5.889,4.844,5.074,8.747,5.019c3.166-0.045,6.332-0.009,9.498-0.01c4.665,0,9.332-0.071,13.995,0.032
				c2.119,0.047,2.821-0.412,2.572-2.807c-0.771-7.416-3.743-13.689-8.771-19.116c-15.494-16.725-53.552-17.385-70.441-3.53
				c-9.011,7.392-13.466,16.87-11.436,28.637c2.008,11.635,10.428,17.266,20.711,20.713c4.086,1.37,8.358,2.188,12.558,3.207
				c7.259,1.764,14.716,2.873,21.561,6.039c5.128,2.371,6.459,6.848,3.466,10.904c-4.871,6.604-21.978,6.748-24.64-2.461
				c-0.464-1.602-0.979-2.586-2.941-2.568c-9.663,0.087-19.328,0.055-28.992,0.023c-1.55-0.006-2.501,0.192-2.216,2.166
				c1.123,7.764,3.644,14.896,9.512,20.367c17.501,16.322,52.841,17.217,71.321,1.873
				C865.804,545.072,869.479,535.602,867.618,524.385z"/>
			<path fill-rule="evenodd" clip-rule="evenodd" fill="#FFFFFF" d="M207.355,534.039c-3.654,0.158-7.341,0.145-10.983-0.159
				c-4.57-0.38-7.395-2.778-7.399-7.696c-0.01-13.658,0.07-27.318-0.076-40.975c-0.03-2.864,1.164-3.247,3.552-3.178
				c4.827,0.14,9.664-0.074,14.489,0.088c2.496,0.084,3.554-0.512,3.479-3.272c-0.184-6.824-0.206-13.661,0.007-20.484
				c0.094-3.018-1.134-3.591-3.774-3.486c-4.324,0.172-8.69-0.273-12.982,0.137c-4.186,0.4-4.961-1.315-4.783-5.021
				c0.28-5.816-0.05-11.66,0.129-17.484c0.083-2.705-0.528-3.807-3.518-3.74c-8.657,0.194-17.324,0.193-25.981,0
				c-2.983-0.066-3.619,1.027-3.524,3.739c0.186,5.324-0.277,10.685,0.15,15.981c0.403,4.99-0.872,7.493-6.294,6.444
				c-3.078-0.595-4,0.728-3.865,3.817c0.253,5.819,0.429,11.686-0.037,17.478c-0.388,4.816,1.034,6.785,5.893,5.849
				c3.651-0.704,4.402,1.056,4.282,4.41c-0.249,6.987-0.075,13.989-0.075,22.347c0.232,7.955-0.544,17.299,0.749,26.587
				c1.632,11.728,7.55,19.91,19.082,23.817c10.701,3.626,21.718,2.534,32.663,2.769c2.342,0.05,2.155-1.509,2.154-3.03
				c-0.001-7.162-0.09-14.326,0.048-21.486C210.791,534.918,210.027,533.922,207.355,534.039z"/>
			<path fill-rule="evenodd" clip-rule="evenodd" fill="#FFFFFF" d="M757.786,534.057c-3.827,0.072-7.677,0.137-11.483-0.186
				c-4.579-0.388-7.337-2.852-7.336-7.758c0.001-13.658,0.045-27.317-0.051-40.975c-0.018-2.377,0.688-3.193,3.104-3.115
				c4.991,0.162,9.997-0.079,14.987,0.099c2.588,0.092,3.472-0.689,3.406-3.346c-0.168-6.825-0.154-13.659-0.005-20.485
				c0.056-2.551-0.64-3.538-3.329-3.423c-4.655,0.199-9.335-0.132-13.985,0.119c-3.176,0.171-4.364-0.668-4.214-4.064
				c0.278-6.317-0.012-12.657,0.126-18.984c0.051-2.36-0.65-3.181-3.078-3.148c-8.826,0.121-17.658,0.173-26.482-0.022
				c-3.064-0.068-3.521,1.209-3.446,3.809c0.154,5.493-0.3,11.021,0.151,16.48c0.395,4.768-0.964,6.827-5.872,5.872
				c-3.621-0.704-4.463,0.99-4.3,4.392c0.279,5.816,0.423,11.683-0.034,17.477c-0.357,4.537,1.175,6.053,5.464,5.276
				c3.603-0.652,4.935,0.586,4.736,4.485c-0.353,6.978-0.1,13.986-0.1,22.369c0.246,7.763-0.501,16.935,0.696,26.065
				c1.479,11.279,6.794,19.589,17.786,23.773c11.083,4.218,22.638,3.038,34.082,3.236c1.92,0.033,2.093-1.122,2.089-2.598
				c-0.02-7.495-0.06-14.991,0.025-22.486C760.749,534.739,759.912,534.017,757.786,534.057z"/>
			<path fill-rule="evenodd" clip-rule="evenodd" fill="#FFFFFF" d="M548.175,587.664c3.979-8.521,5.415-17.549,5.483-26.678
				c0.26-34.162,0.078-68.327,0.167-102.49c0.008-2.953-1.1-3.683-3.817-3.613c-5.996,0.152-11.998,0.046-17.998,0.046
				c-10.952,0-10.948,0-11.152,11.151c-0.007,0.422-0.225,0.841-0.529,1.907c-3.463-3.75-6.709-7.006-10.785-9.302
				c-17.37-9.783-41.761-4.92-55.371,11.121c-15.597,18.384-18.215,48.528-6.021,69.344c10.882,18.578,31.464,27.804,50.974,22.89
				c8.75-2.204,15.428-7.443,21.74-15.436c0,5.911,0.063,10.396-0.028,14.878c-0.04,1.989-0.36,3.977-0.61,5.958
				c-1.267,10.063-6.5,16.494-14.971,18.425c-11.011,2.512-22.019-1.037-27.18-8.996c-1.123-1.732-2.169-2.623-4.299-2.598
				c-8.498,0.101-16.999,0.104-25.497,0.004c-2.579-0.029-3.655,0.713-3.224,3.465c1.933,12.329,7.328,22.645,18.515,28.705
				c18.498,10.02,38.124,10.967,58.089,5.229C534.279,608.049,542.66,599.475,548.175,587.664z M513.238,528.256
				c-6.873,6.443-14.938,8.585-23.945,5.031c-9.486-3.743-14.083-11.182-15.16-21.053c-0.125-1.15-0.017-2.327-0.017-3.492
				c-0.141-7.405,1.602-14.17,7.007-19.598c9.364-9.402,23.824-9.237,32.978,0.369C523.41,499.283,523.078,519.03,513.238,528.256z"
				/>
			<path fill-rule="evenodd" clip-rule="evenodd" fill="#FFFFFF" d="M674.236,395.153c5.003,0.349,11.119-0.495,16.998-2.426
				c25.374-8.335,38.396-29.232,37.422-55.029c-0.454-12.038-3.704-23.286-11.888-32.652
				c-12.542-14.354-28.565-19.732-47.264-19.181c-28.124,0.829-58.19,22.289-51.983,63.733
				C621.772,377.979,643.502,395.159,674.236,395.153z M652.283,327.891c3.562-9.86,13.381-15.322,23.896-13.827
				c9.874,1.404,17.875,10.597,18.764,21.633c0.134,1.651,0.019,3.322,0.019,4.983c0.24,7.367-1.258,14.274-6.457,19.792
				c-10.664,11.318-29.305,7.956-35.615-6.346C649.075,345.48,649.133,336.614,652.283,327.891z"/>
			<path fill-rule="evenodd" clip-rule="evenodd" fill="#FFFFFF" d="M701.858,623.912c-14.03-10.299-29.685-12.023-46.081-8.174
				c-18.202,4.274-29.135,17.753-30.348,36.094c-0.177,2.685,0.469,3.529,3.137,3.483c7.323-0.128,14.66-0.268,21.973,0.048
				c3.951,0.17,5.727-0.713,6.56-5.005c1.321-6.81,6.978-9.965,14.879-9.406c6.447,0.456,11.186,4.864,12.084,11.242
				c1.509,10.72-3.057,16.66-14.349,18.726c-7.59,1.389-15.266,1.318-22.903,1.011c-3.907-0.158-4.827,1.175-4.61,4.796
				c0.296,4.978,0.074,9.985,0.074,14.979c0,5.161,0.174,10.331-0.062,15.481c-0.154,3.362,0.729,4.84,4.393,4.594
				c4.475-0.301,8.988,0.022,13.479-0.099c4.132-0.112,9.456,1.766,12.082-0.706c2.889-2.718,1.141-8.202,0.895-12.408
				c-0.264-4.499,1.326-5.516,5.576-5.694c10.297-0.434,20.228-2.739,27.977-10.121c11.596-11.049,13.09-35.312,3.386-50.152
				C707.798,629.233,705.131,626.313,701.858,623.912z"/>
			<path fill-rule="evenodd" clip-rule="evenodd" fill="#FFFFFF" d="M427.086,453.993c-5.222,0.668-9.925,2.568-14.229,5.615
				c-5.081,3.596-8.438,8.714-12.726,14.699c0-5.98-0.163-10.729,0.058-15.46c0.143-3.044-0.816-4.06-3.931-3.984
				c-8.159,0.2-16.335,0.29-24.487-0.028c-3.982-0.156-4.651,1.376-4.605,4.902c0.136,10.323-0.082,20.65-0.161,30.976
				c0.529,3.626,0.465,7.253,0.017,10.88c0.074,1.994,0.209,3.988,0.211,5.983c0.017,16.661,0.099,33.323-0.063,49.982
				c-0.034,3.442,0.866,4.635,4.437,4.524c8.156-0.251,16.331-0.24,24.487-0.002c3.424,0.1,4.132-1.167,4.101-4.307
				c-0.144-14.326-0.115-28.656-0.026-42.984c0.022-3.65,0.308-7.322,0.792-10.941c1.256-9.394,5.965-14.15,15.177-16.028
				c3.807-0.776,7.617-0.841,11.436-0.712c2.559,0.086,3.508-0.715,3.466-3.385c-0.139-8.828-0.179-17.663,0.014-26.489
				C431.123,453.997,429.575,453.674,427.086,453.993z"/>
			<path fill-rule="evenodd" clip-rule="evenodd" fill="#FFFFFF" d="M658.857,724.085c-10.1-0.146-18.015,7.659-18.068,17.82
				c-0.054,10.216,7.681,18.078,17.788,18.082c10.095,0.004,17.986-7.942,17.921-18.046
				C676.434,732.039,668.718,724.229,658.857,724.085z"/>
		</g>
		<g opacity="0.6">
			<animate id="an1" attributeName="fill" from="#0369AF" to="#DA2024" dur="3s" begin="0s;an3.end" />
			<animate id="an2" attributeName="fill" from="#DA2024" to="#F9B42E" dur="3s" begin="an1.end" />
			<animate id="an3" attributeName="fill" from="#F9B42E" to="#0369AF" dur="3s" begin="an2.end" />

			<path fill-rule="evenodd" clip-rule="evenodd" d="M863.901,737.556
				c-64.118-64.725-128.114-129.569-192.135-194.39c-8.997,10.107-19.732,17.111-33.375,19.268
				c-38.034,6.011-62.866-19.346-63.648-50.211c-0.388-15.294,2.075-29.477,12.564-41.37c9.31-10.556,21.183-15.763,35.013-16.87
				c13.475-1.079,26.141,1.552,37.816,8.514c0.506-0.422,1.052-0.81,1.519-1.276c65.882-65.858,131.739-131.741,197.701-197.518
				c2.746-2.738,1.795-3.895-0.406-6.09c-40.236-40.127-80.429-80.298-120.489-120.6c-2.942-2.959-4.297-2.93-7.228,0.013
				c-47.856,48.062-95.851,95.987-143.806,143.951c-2.58,2.581-5.076,5.247-7.611,7.873c16.764,8.355,23.654,22.763,24.014,40.61
				c0.41,20.294,0.092,40.603,0.217,60.904c0.017,2.829-0.864,3.743-3.689,3.688c-7.985-0.156-15.984-0.27-23.96,0.037
				c-4.06,0.156-5.408-0.887-5.346-5.171c0.251-17.137,0.124-34.28,0.082-51.421c-0.008-3.144,0.067-6.281-0.872-9.392
				c-2.529-8.37-7.715-12.667-16.535-13.408c-7.827,7.719-15.654,15.438-23.482,23.158c-0.044,16.955-0.211,33.912-0.042,50.865
				c0.04,3.971-0.753,5.574-5.104,5.38c-7.964-0.355-15.957-0.215-23.933-0.043c-3.001,0.064-4.075-0.821-4.022-3.926
				c0.136-7.974-0.053-15.953-0.112-23.93c-9.653-9.593-19.306-19.187-28.959-28.78c-3.971,9.702-5.956,20-8.96,29.992
				c-2.297,7.638-4.367,15.348-6.361,23.071c-0.701,2.714-1.979,3.645-4.847,3.589c-9.824-0.193-19.659-0.258-29.478,0.022
				c-3.61,0.103-4.804-1.287-5.683-4.513c-7.121-26.136-14.414-52.226-21.66-78.328c-0.129-0.464-0.326-0.909-0.784-2.168
				c-4.233,15.429-8.27,30.146-12.309,44.862c-3.255,11.859-6.614,23.691-9.704,35.594c-0.833,3.212-2.011,4.664-5.658,4.555
				c-9.652-0.29-19.322-0.25-28.978-0.013c-3.249,0.08-4.656-0.946-5.526-4.047c-11.718-41.767-23.555-83.5-35.336-125.249
				c-1.596-5.654-1.529-5.682,4.479-5.689c8.328-0.01,16.659,0.107,24.984-0.06c3.034-0.061,4.272,0.875,5.008,3.975
				c7.211,30.388,14.623,60.728,22.097,91.573c2.381-3.555,2.566-7.381,3.445-10.899c6.57-26.277,13.062-52.574,19.361-78.917
				c1.008-4.218,2.547-6.322,7.24-5.77c3.605,0.424,7.312-0.022,10.973-0.081c-0.286-0.401-0.524-0.85-0.866-1.196
				c-40.025-40.534-80.093-81.025-120.013-121.662c-2.787-2.836-3.893-1.282-5.754,0.559
				c-40.501,40.06-81.001,80.121-121.616,120.065c-2.741,2.696-2.844,4.045-0.068,6.839
				c39.801,40.052,79.486,80.219,119.162,120.396c23.282,23.575,46.497,47.216,69.742,70.828c7.496,0.446,7.496,0.446,8.007,8.131
				c9.345,9.277,18.689,18.554,28.035,27.832c0.079-10.326,0.297-20.653,0.161-30.976c-0.046-3.526,0.623-5.058,4.605-4.902
				c8.152,0.318,16.328,0.228,24.487,0.028c3.115-0.076,4.074,0.939,3.931,3.984c-0.221,4.731-0.058,9.48-0.058,15.46
				c4.288-5.984,7.645-11.103,12.726-14.699c4.305-3.046,9.007-4.947,14.229-5.615c2.489-0.318,4.037,0.004,3.966,3.241
				c-0.193,8.826-0.153,17.661-0.014,26.489c0.042,2.67-0.907,3.471-3.466,3.385c-3.819-0.128-7.628-0.063-11.436,0.712
				c-9.212,1.878-13.921,6.634-15.177,16.028c-0.484,3.619-0.769,7.291-0.792,10.941c-0.089,14.328-0.117,28.658,0.026,42.984
				c0.031,3.14-0.677,4.406-4.101,4.307c-8.157-0.238-16.331-0.249-24.487,0.002c-3.571,0.11-4.47-1.082-4.437-4.524
				c0.163-16.659,0.081-33.321,0.063-49.982c-0.002-1.995-0.137-3.989-0.211-5.984c-9.35,9.161-18.701,18.321-28.051,27.481
				c-0.069,8.807-0.129,17.613-0.209,26.419c-0.067,7.382,0.764,6.456-6.262,6.495c-8.809,0.049-17.619,0.016-26.428,0.017
				c-1.132,1.21-2.232,2.452-3.403,3.622c-55.376,55.367-110.745,110.742-166.192,166.037c-2.445,2.438-3.112,3.709-0.25,6.556
				c40.514,40.305,80.91,80.728,121.217,121.239c2.555,2.568,3.697,2.279,6.072-0.111c28.189-28.36,56.488-56.611,84.786-84.863
				c11.191-11.173,22.454-22.275,33.684-33.409c0.021-14.156,0.338-28.319-0.034-42.465c-0.288-10.964-7.91-17.94-19.034-18.464
				c-11.525-0.543-19.456,5.66-21.161,16.711c-0.43,2.783-0.572,5.635-0.581,8.456c-0.052,16.826-0.091,33.653,0.034,50.479
				c0.023,3.045-0.47,4.414-3.995,4.3c-8.488-0.273-16.992-0.168-25.486-0.041c-2.542,0.038-3.474-0.661-3.468-3.345
				c0.077-33.486,0.076-66.973,0.002-100.459c-0.006-2.666,0.913-3.407,3.467-3.371c8.661,0.124,17.329,0.175,25.987-0.021
				c3.047-0.069,3.62,1.152,3.478,3.8c-0.185,3.437-0.045,6.89-0.045,11.736c9.201-13.259,21.372-17.357,35.687-16.455
				c14.382,0.905,25.229,7.582,32.556,20.32c7.312-10.311,16.36-17.542,28.718-19.734c9.93-1.761,19.528-0.295,28.801,3.549
				c9.613-9.659,19.341-19.208,28.763-29.051c2.579-2.694,3.836-2.128,6.081,0.201c9.46,9.814,19.105,19.449,28.683,29.15
				c13.465-5.042,27.224-6.284,41.149-2.454c24.914,6.852,39.078,27.205,37.857,54.64c-0.383,8.575-0.738,8.545-9.542,8.567
				c-2.995,0.008-5.989,0.109-8.984,0.168c2.397,2.588,4.794,5.176,7.192,7.764c0.644,0.088,1.285,0.22,1.933,0.258
				c5.882,0.34,5.883,0.335,4.216,5.843c43.914,44.418,87.863,88.803,131.667,133.33c3.007,3.057,4.401,3.174,7.522,0.071
				c40.044-39.812,80.213-79.499,120.515-119.05C867.299,742.233,867.006,740.69,863.901,737.556z M669.505,285.865
				c18.698-0.551,34.722,4.827,47.264,19.181c8.184,9.366,11.434,20.614,11.888,32.652c0.974,25.797-12.048,46.694-37.422,55.029
				c-5.879,1.931-11.995,2.775-16.998,2.426c-30.734,0.006-52.464-17.175-56.715-45.555
				C611.314,308.153,641.381,286.693,669.505,285.865z M553.658,560.986c-0.068,9.129-1.504,18.156-5.483,26.678
				c-5.515,11.811-13.896,20.385-26.515,24.011c-19.965,5.737-39.591,4.79-58.089-5.229c-11.188-6.061-16.582-16.376-18.515-28.705
				c-0.432-2.752,0.645-3.494,3.224-3.465c8.498,0.1,16.999,0.097,25.497-0.004c2.13-0.025,3.177,0.865,4.299,2.598
				c5.161,7.959,16.169,11.508,27.18,8.996c8.471-1.931,13.704-8.361,14.971-18.425c0.25-1.981,0.57-3.969,0.61-5.958
				c0.092-4.482,0.028-8.967,0.028-14.878c-6.312,7.992-12.99,13.231-21.74,15.436c-19.51,4.914-40.092-4.312-50.974-22.89
				c-12.194-20.816-9.576-50.96,6.021-69.344c13.61-16.041,38.001-20.904,55.371-11.121c4.076,2.296,7.322,5.552,10.785,9.302
				c0.305-1.066,0.522-1.485,0.529-1.907c0.204-11.151,0.2-11.151,11.152-11.151c6,0,12.002,0.106,17.998-0.046
				c2.718-0.069,3.825,0.66,3.817,3.613C553.736,492.66,553.918,526.824,553.658,560.986z M658.577,759.987
				c-10.107-0.004-17.842-7.866-17.788-18.082c0.054-10.161,7.969-17.967,18.068-17.82c9.86,0.144,17.576,7.954,17.641,17.856
				C676.563,752.045,668.672,759.991,658.577,759.987z M706.613,682.753c-7.749,7.382-17.68,9.688-27.977,10.121
				c-4.25,0.179-5.84,1.195-5.576,5.694c0.246,4.206,1.994,9.69-0.895,12.408c-2.626,2.472-7.95,0.594-12.082,0.706
				c-4.491,0.121-9.005-0.202-13.479,0.099c-3.664,0.246-4.547-1.231-4.393-4.594c0.235-5.15,0.062-10.32,0.062-15.481
				c0-4.994,0.222-10.002-0.074-14.979c-0.217-3.621,0.703-4.954,4.61-4.796c7.638,0.308,15.313,0.378,22.903-1.011
				c11.292-2.065,15.857-8.006,14.349-18.726c-0.898-6.378-5.637-10.786-12.084-11.242c-7.901-0.559-13.558,2.597-14.879,9.406
				c-0.833,4.292-2.608,5.175-6.56,5.005c-7.312-0.315-14.649-0.176-21.973-0.048c-2.668,0.046-3.313-0.799-3.137-3.483
				c1.213-18.341,12.146-31.819,30.348-36.094c16.396-3.85,32.051-2.125,46.081,8.174c3.272,2.401,5.939,5.321,8.141,8.688
				C719.703,647.441,718.209,671.704,706.613,682.753z"/>
			<path fill-rule="evenodd" clip-rule="evenodd" d="M433.489,352.4c0.358,0,0.716,0.001,1.074,0.001
				c2.782-13.72,5.563-27.439,8.345-41.16c-8.302-8.136-16.604-16.271-24.906-24.407c2.379,10.513,4.678,21.044,7.159,31.533
				C427.849,329.733,430.706,341.058,433.489,352.4z"/>
			<path fill-rule="evenodd" clip-rule="evenodd" d="M608.992,522.686c3.808,12.629,22.477,17.158,32.057,7.587
				c2.211-2.209,4.346-3.267,7.405-3.046c2.305,0.167,4.642-0.107,6.964-0.186c-2.412-2.578-4.823-5.155-7.234-7.734
				c-12.298-0.068-24.598-0.051-36.894-0.261C607.979,518.99,608.328,520.479,608.992,522.686z"/>
			<path fill-rule="evenodd" clip-rule="evenodd" d="M415.08,699.804c-0.121,2.478,0.036,4.969,0.064,7.454
				c9.065-8.391,17.777-17.135,26.201-26.167C427.205,677.227,415.788,685.338,415.08,699.804z"/>
			<path fill-rule="evenodd" clip-rule="evenodd" d="M628.229,494.649c3.357-3.401,6.731-6.787,10.1-10.181
				c-11.084-6.016-24.869-1.229-28.826,9.97c-0.929,2.63-1.133,4.52,2.639,4.364c5.113-0.211,10.236-0.211,15.355-0.301
				C625.303,496.756,627.136,495.756,628.229,494.649z"/>
			<path fill-rule="evenodd" clip-rule="evenodd" d="M554.149,680.091c5.311,5.479,10.62,10.958,15.931,16.437
				c5.568,0.288,6.018-0.311,3.932-5.234C570.871,683.877,563.365,679.644,554.149,680.091z"/>
			<path fill-rule="evenodd" clip-rule="evenodd" d="M481.123,489.144c-5.405,5.428-7.148,12.193-7.007,19.598
				c0,1.165-0.108,2.342,0.017,3.492c1.077,9.871,5.674,17.31,15.16,21.053c9.008,3.554,17.072,1.412,23.945-5.031
				c9.84-9.226,10.172-28.973,0.862-38.743C504.947,479.907,490.487,479.742,481.123,489.144z"/>
			<path fill-rule="evenodd" clip-rule="evenodd" d="M688.505,360.471c5.199-5.517,6.697-12.425,6.457-19.792
				c0-1.661,0.115-3.332-0.019-4.983c-0.889-11.036-8.89-20.229-18.764-21.633c-10.516-1.495-20.334,3.967-23.896,13.827
				c-3.15,8.723-3.208,17.589,0.606,26.234C659.2,368.427,677.841,371.789,688.505,360.471z"/>
		</g>
	</g>
</g>
</svg>
